<?xml version="1.0" encoding="utf-8"?>
<!-- Generator: Adobe Illustrator 19.0.0, SVG Export Plug-In . SVG Version: 6.00 Build 0)  -->
<svg version="1.1" id="Layer_1" xmlns="http://www.w3.org/2000/svg" xmlns:xlink="http://www.w3.org/1999/xlink" x="0px" y="0px"
	 viewBox="0 0 612 792" style="enable-background:new 0 0 612 792;" xml:space="preserve">
<style type="text/css">
	.st0{fill:none;stroke:#DC4626;stroke-width:0.25;stroke-miterlimit:10;}
</style>
<polygon class="st0" points="231.5,321 202.5,369.8 202.5,427 234.8,477.6 285.8,497.5 334.8,497.5 388.3,461.9 409.5,397.8 
	388,333.5 334,298.3 287.5,294.6 "/>
<polygon class="st0" points="270.8,329 213.9,378.3 235.1,451.1 309.6,454.8 382.1,430.8 388.4,362.8 343.4,311.5 "/>
<polygon class="st0" points="228.8,342.3 213.9,400 250.3,377 "/>
<polygon class="st0" points="264,396.1 235.1,451.1 309.6,454.8 "/>
<polygon class="st0" points="334.5,374 264,396.1 270.8,329 "/>
<polygon class="st0" points="309.6,454.8 382.1,430.8 387,362.5 334.5,374 "/>
<polygon class="st0" points="343.4,311.5 334.5,374 382.1,430.8 409.5,397.8 388.4,362.8 388,333.5 "/>
<polygon class="st0" points="250.3,377 270.1,335 228.8,342.3 272.9,303.5 317.3,322.3 334,298.3 364.3,329 350.3,362.5 
	299.3,363.8 326.9,398.6 284.8,412 "/>
<polyline class="st0" points="213.9,400 244.5,422.5 250.3,377 "/>
<line class="st0" x1="213.9" y1="378.3" x2="264" y2="396.1"/>
<polyline class="st0" points="275.8,459.5 230,456 234.8,477.6 "/>
<polyline class="st0" points="230,456 202.5,427 235.1,451.1 234.8,477.6 274.6,493.2 275.8,459.5 244.5,422.5 230,456 213.9,400 
	202.5,427 213.9,378.3 202.5,369.8 228.8,342.3 231.5,321 233,320.3 287.5,294.6 343.4,311.5 334,298.3 272.9,303.5 270.8,329 
	287.5,294.6 "/>
<polyline class="st0" points="244.5,422.5 284.8,412 275.8,459.5 316.3,480.5 274.6,493.2 228.8,454.8 "/>
<polyline class="st0" points="285.8,497.5 348.3,485 309.6,454.8 285.8,497.5 235.1,451.1 "/>
<polygon class="st0" points="325,443.3 366.4,412 392.8,373 396,425.4 362.5,462.8 316.3,480.5 "/>
<polyline class="st0" points="366.4,412 362.5,462.8 325,443.3 "/>
<line class="st0" x1="274.6" y1="493.2" x2="334.8" y2="497.5"/>
<polyline class="st0" points="348.3,485 388.3,461.9 362.5,462.8 334.8,497.5 325,443.3 326.9,398.6 366.4,412 350.3,362.5 
	317.3,322.3 299.3,363.8 250.3,377 270.1,335 299.3,363.8 284.8,412 325,443.3 275.8,459.5 "/>
<polyline class="st0" points="366.4,412 396,425.4 388.3,461.9 382.1,430.8 362.5,462.8 348.3,485 334.8,497.5 316.3,480.5 "/>
<polyline class="st0" points="396,425.4 409.5,397.8 392.8,373 350.3,362.5 326.9,398.6 "/>
<polyline class="st0" points="213.9,378.3 231.5,321 270.8,329 "/>
<line class="st0" x1="202.5" y1="369.8" x2="213.9" y2="400"/>
<polyline class="st0" points="364.3,329 392.8,373 388,333.5 364.3,329 317.3,322.3 270.1,335 "/>
<polyline class="st0" points="231.5,321 272.9,303.5 287.5,294.6 "/>
</svg>
